<svg xmlns="http://www.w3.org/2000/svg" width="104.141" height="54.754" viewBox="0 0 104.141 54.754">
  <g id="Grupo_66" data-name="Grupo 66" transform="translate(-49.859 -59.246)">
    <text id="Travel" transform="translate(76 107)" fill="#8257e5" font-size="28" font-family="Roboto-Bold, Roboto" font-weight="700"><tspan x="0" y="0">Trav</tspan><tspan y="0" fill="#333234">el</tspan></text>
    <path id="Icon_ionic-ios-airplane" data-name="Icon ionic-ios-airplane" d="M28.666,15.75c-.239,0-1.041.007-1.266.021l-4.563.12a.13.13,0,0,1-.12-.063L15.877,5.583a1.13,1.13,0,0,0-.949-.52H13.261c-.394,0-.527.394-.387.759L16.4,15.862a.138.138,0,0,1-.127.19l-8.606.127a.566.566,0,0,1-.464-.218L4.6,12.8a1.116,1.116,0,0,0-.886-.429H2.531a.28.28,0,0,0-.267.373l1.4,4.83a1.146,1.146,0,0,1,0,.837l-1.4,4.83a.28.28,0,0,0,.267.373H3.705a1.137,1.137,0,0,0,.886-.429l2.651-3.213a.576.576,0,0,1,.464-.218l8.557.19a.139.139,0,0,1,.127.19L12.867,30.178c-.141.366-.007.759.387.759H14.92a1.121,1.121,0,0,0,.949-.52L22.718,20.18a.138.138,0,0,1,.12-.063l4.563.12c.232.014,1.027.021,1.266.021,3.115,0,5.084-1.005,5.084-2.25S31.788,15.75,28.666,15.75Z" transform="matrix(0.616, -0.788, 0.788, 0.616, 44.485, 82.725)" fill="#8257e5"/>
  </g>
</svg>
